<svg xmlns="http://www.w3.org/2000/svg" width="1072" height="783" fill="none" viewBox="0 0 1072 783">
  <mask id="a" width="1072" height="783" x="0" y="0" maskUnits="userSpaceOnUse" style="mask-type:luminance">
    <path fill="#fff" d="M1071.81 0H0v782.7h1071.81V0Z"/>
  </mask>
  <g mask="url(#a)">
    <path fill="url(#b)" d="M866.99 43H213.842c-23.907 0-43.289 19.381-43.289 43.289v413.528c0 23.908 19.382 43.289 43.289 43.289H866.99c23.91 0 43.29-19.381 43.29-43.289V86.289C910.28 62.381 890.9 43 866.99 43Z"/>
    <path fill="#022C22" d="M220.056 43H861.83c12.99 0 25.45 5.16 34.63 14.344a48.955 48.955 0 0 1 14.35 34.629H171.083A48.97 48.97 0 0 1 220.056 43Z"/>
    <path stroke="#064E3B" stroke-dasharray="11.93 11.93" stroke-miterlimit="10" d="M560.489 123.057H862.62c5.18 0 10.16 2.059 13.82 5.724a19.533 19.533 0 0 1 5.73 13.821V291.95a19.53 19.53 0 0 1-5.73 13.82 19.542 19.542 0 0 1-13.82 5.724H560.489a19.546 19.546 0 0 1-19.544-19.544V142.602a19.546 19.546 0 0 1 19.544-19.545Z"/>
    <path fill="#fff" d="M781.523 339.118H479.391c-10.794 0-19.544 8.75-19.544 19.545v149.348c0 10.794 8.75 19.544 19.544 19.544h302.132c10.794 0 19.545-8.75 19.545-19.544V358.663c0-10.795-8.751-19.545-19.545-19.545Zm-358.285 0h-211.12c-9.131 0-16.533 7.402-16.533 16.534v155.37c0 9.131 7.402 16.533 16.533 16.533h211.12c9.131 0 16.533-7.402 16.533-16.533v-155.37c0-9.132-7.402-16.534-16.533-16.534Z"/>
    <path stroke="#064E3B" stroke-linecap="round" stroke-miterlimit="10" stroke-width="10" d="M487.651 476.154s22.645-2.385 36.26 7.808c18.261 13.669 32.968 24.221 52.381-9.376 21.267-36.809 24.61-49.665 40.125-49.817 19.914-.194 27.688 52.886 64.407 56.637 36.718 3.751 61.685-2.251 61.685-2.251"/>
    <path stroke="#064E3B" stroke-linecap="round" stroke-miterlimit="10" stroke-width="16" d="M487.651 370.217h52.764"/>
    <path stroke="#6EE7B7" stroke-linecap="round" stroke-miterlimit="10" stroke-width="16" d="M487.651 394.842h109.042"/>
    <path fill="#fff" d="M215.835 78.562a8.369 8.369 0 1 0 0-16.738 8.369 8.369 0 0 0 0 16.738Zm28.36 0a8.368 8.368 0 0 0 8.368-8.368 8.368 8.368 0 1 0-16.736 0 8.368 8.368 0 0 0 8.368 8.368Zm27.551 0a8.368 8.368 0 0 0 8.368-8.368 8.368 8.368 0 1 0-16.737 0 8.369 8.369 0 0 0 8.369 8.368Z"/>
    <path fill="#16A34A" d="M712.038 251.137c18.701 0 33.862-15.16 33.862-33.861 0-18.702-15.161-33.862-33.862-33.862s-33.862 15.16-33.862 33.862c0 18.701 15.161 33.861 33.862 33.861Z"/>
    <path fill="#fff" d="M714.711 201.277a2.673 2.673 0 0 0-5.346 0v34.145a2.673 2.673 0 0 0 5.346 0v-34.145Z"/>
    <path fill="#fff" d="M729.111 221.022a2.672 2.672 0 0 0 0-5.346h-34.145a2.673 2.673 0 1 0 0 5.346h34.145Z"/>
    <path fill="#F5F8FF" d="M536.103 738.039c293.877 0 532.107-6.086 532.107-13.594 0-7.508-238.23-13.594-532.107-13.594C242.231 710.851 4 716.937 4 724.445c0 7.508 238.231 13.594 532.103 13.594Z"/>
    <path fill="#10B981" d="M1002.77 457.462H630.457v263.013h372.313V457.462Z"/>
    <path fill="url(#c)" d="M779.191 457.462H630.457v263.013h148.734V457.462Z"/>
    <path fill="#064E3B" d="m95.171 621.62-15.279 98.119-5.817-.906a7.493 7.493 0 0 1-6.249-8.554L80.8 626.963a7.493 7.493 0 0 1 8.554-6.249l5.817.906Z"/>
    <path fill="#BC775C" d="m142.924 638.133-23.89-7.148-7.595 33.284 26.137 8.206 5.348-34.342Z"/>
    <path fill="#93523E" d="m126.485 668.993-4.417-1.386 10.851-32.467 4.034 1.207-10.468 32.646Z"/>
    <path fill="#16A34A" d="M122.063 631.457s-9.36 16.263-4.202 34.829l-32.156 52.569c-2.795 2.042-7.042.831-9.402-.425a2.819 2.819 0 0 1-1.192-1.236 2.82 2.82 0 0 1-.257-1.698l13.87-89.065a5.74 5.74 0 0 1 6.447-4.811c5.964.809 15.041 2.116 18.611 3.033 5.518 1.416 8.428 3.423 8.281 6.804Z"/>
    <path fill="#fff" d="m111.449 677.451-4.721-7.529a1.976 1.976 0 0 0-1.614-.928 1.976 1.976 0 0 0-1.671.822 1.99 1.99 0 0 0-.373 1.106c-.01.398.1.789.315 1.124l5.894 9.149 2.17-3.744Zm-5.352 8.066-4.675-7.512a1.982 1.982 0 0 0-3.284-.106 1.977 1.977 0 0 0-.059 2.23l5.77 9.064 2.248-3.676Zm-5.547 9.068-4.589-7.458a1.982 1.982 0 0 0-3.284-.106 1.977 1.977 0 0 0-.058 2.23l5.742 8.914 2.189-3.58Z"/>
    <path fill="#064E3B" d="M357.81 707.097h99.301v5.887a7.492 7.492 0 0 1-7.49 7.49H365.3a7.49 7.49 0 0 1-7.49-7.49v-5.887Z"/>
    <path fill="#BC775C" d="m366.779 657.372-3.387 24.704 34.057 2.384 4.086-27.088h-34.756Z"/>
    <path fill="#93523E" d="m401.182 659.712-.872 5.781-34.973 2.396 1.121-8.177h34.724Z"/>
    <path fill="#16A34A" d="M363.392 679.011s17.51 6.747 35.061-1.206l56.891 23.684c2.448 2.447 1.905 6.83 1.026 9.355a2.827 2.827 0 0 1-2.676 1.883h-90.139a5.743 5.743 0 0 1-5.745-5.63c-.118-6.018-.223-15.187.133-18.856.551-5.671 2.086-8.855 5.449-9.23Z"/>
    <path fill="#fff" d="m410.472 682.422-6.714 5.824a1.97 1.97 0 0 0-.55.785c-.117.303-.157.63-.117.952a1.978 1.978 0 0 0 3.281 1.238l8.133-7.23-4.033-1.569Zm8.793 4.047-6.703 5.776a1.962 1.962 0 0 0-.551.785c-.117.303-.157.63-.117.952a1.973 1.973 0 0 0 1.069 1.524 1.979 1.979 0 0 0 2.212-.286l8.068-7.095-3.978-1.656Zm9.814 4.085-6.664 5.683a1.97 1.97 0 0 0-.55.785c-.117.303-.157.63-.117.952a1.97 1.97 0 0 0 1.068 1.524 1.983 1.983 0 0 0 2.213-.286l7.924-7.045-3.874-1.613Z"/>
    <path fill="#BC775C" d="m308.289 333.596 20.58-40.52s-12.529 1.637-14.712-6.139c-2.184-7.777 59.21-14.735 59.21-14.735s-4.912 17.191-12.279 19.237l-20.26 59.347-32.539-17.19Z"/>
    <path fill="#93523E" d="m311.355 327.56 32.146 15.399-2.673 7.827-31.239-19.748 1.766-3.478Z"/>
    <path fill="#FEBB94" d="m507.356 116.746-295.917 48.442a9.315 9.315 0 0 0-7.688 10.699l19.323 118.038a9.317 9.317 0 0 0 10.699 7.689l295.916-48.443a9.316 9.316 0 0 0 7.689-10.699l-19.323-118.038a9.315 9.315 0 0 0-10.699-7.688Z"/>
    <path stroke="#fff" stroke-linecap="round" stroke-miterlimit="10" stroke-width="16.521" d="m356.14 190.756 120.263-19.688"/>
    <path stroke="#fff" stroke-linecap="round" stroke-miterlimit="10" stroke-width="16.521" d="m364.684 227.272 78.451-12.843" opacity=".7"/>
    <path stroke="#EF6A77" stroke-miterlimit="10" stroke-width="16.521" d="M284.252 271.297c23.491 0 42.534-19.043 42.534-42.533 0-23.491-19.043-42.534-42.534-42.534-23.49 0-42.533 19.043-42.533 42.534 0 23.49 19.043 42.533 42.533 42.533Z"/>
    <path stroke="#fff" stroke-linecap="round" stroke-miterlimit="10" stroke-width="16.521" d="M326.227 221.892a42.536 42.536 0 0 1-43.424 49.381 42.528 42.528 0 0 1-23.372-7.97 42.533 42.533 0 0 1 17.95-76.514"/>
    <path fill="#064E3B" d="m298.112 547.265 12.275 138.934c0 29.782-30.387 33.17-40.115 29.66-13.721-4.951-146.617-38.783-146.617-38.783l14.084-43.136 101.998 14.177s-2.789-28.945-30.141-117.33l88.516 16.478Z"/>
    <path fill="#022C22" d="m218.709 561.401 82.703 23.221-4.65-55.789-87.166 1.954 9.113 30.614Z"/>
    <path fill="#BC775C" d="M296.911 242.87s16.378 18.592 21.247 26.117c4.87 7.525 5.044 22.284-5.137 26.046-10.18 3.763-18.508 4.395-33.373 1.619-11.565-2.16-26.559-21.247-22.132-30.985 4.426-9.738 25.009-27.444 39.395-22.797Z"/>
    <path fill="#BC775C" d="m300.01 294.881-2.435 31.428-35.633-7.746 15.936-29.657 22.132 5.975Z"/>
    <path fill="#93523E" d="M300.01 298.152h-9.688l8.288 14.798"/>
    <path fill="url(#d)" d="m257.959 316.571 5.314-5.148a5.707 5.707 0 0 1 2.463-1.407 5.71 5.71 0 0 1 2.836-.051l29.137 6.9a4.177 4.177 0 0 1 3.015 2.799l2.106 6.645-44.871-9.738Z"/>
    <path fill="#064E3B" d="m211.81 475.469-5.216 25.269c-5.872 38.548 21.765 64.046 64.004 57.097 37.722-6.206 149.461-49.529 149.461-49.529l-4.453-68.565-93.937 15.498s-84.434-15.643-109.859 20.23Z"/>
    <path fill="#064E3B" d="M422.603 499.702c16.783 0 30.388-13.605 30.388-30.387 0-16.783-13.605-30.388-30.388-30.388-16.782 0-30.387 13.605-30.387 30.388 0 16.782 13.605 30.387 30.387 30.387Z"/>
    <path fill="#064E3B" d="M422.603 499.702c16.783 0 30.388-13.605 30.388-30.387 0-16.783-13.605-30.388-30.388-30.388-16.782 0-30.387 13.605-30.387 30.388 0 16.782 13.605 30.387 30.387 30.387ZM280 717.459c16.783 0 30.387-13.605 30.387-30.387 0-16.783-13.604-30.388-30.387-30.388-16.782 0-30.387 13.605-30.387 30.388 0 16.782 13.605 30.387 30.387 30.387Z"/>
    <path fill="#064E3B" d="M451.508 478.096 408.79 659.712h-51.091l34.517-190.397 59.292 8.781Z"/>
    <path fill="#022C22" d="m321.669 455.24-112.512 35.015 2.653-14.786 109.859-20.229Z"/>
    <path fill="#BC775C" d="m346.917 352.645 11.179 8.133 37.329-61.272s-4.97-20.069-5.312-23.486l12.146-1.732s9.837-18.541 12.642-22.209c2.804-3.667 6.04-3.02 7.766 0 0 0 5.393.863 6.256 8.198 0 0 4.746 1.079 6.687 10.57 0 0 4.099 4.315 3.236 9.061-.863 4.746-11.649 23.346-13.375 25.264a46.95 46.95 0 0 0-3.667 4.937l-35.953 86.153s-8.785 18.844-29.373 11.697l-25.524-11.829c-11.716-7.591 15.963-43.485 15.963-43.485Z"/>
    <path fill="#BC775C" d="M365.732 410.187c11.867 0 21.488-9.621 21.488-21.488 0-11.868-9.621-21.489-21.488-21.489-11.868 0-21.489 9.621-21.489 21.489 0 11.867 9.621 21.488 21.489 21.488Z"/>
    <path fill="#022C22" d="M275.664 258.363s21.026-7.082 25.231-21.911c4.205-14.829-4.647-22.575-16.156-15.05 0 0-8.189-13.058-22.133-3.984-13.943 9.075-11.287 30.543-10.844 34.748 0 0-15.714 11.066-8.189 28.551 7.525 17.484 28.173 21.689 28.173 21.689a31.243 31.243 0 0 0 4.804-10.844s-11.379-8.632-4.804-17.042c6.574-8.411 14.099 5.09 14.099 5.09s5.755-19.034-10.181-21.247Z"/>
    <path fill="url(#e)" d="M257.959 316.571s-14.597 7.258-17.903 15.074c-3.056 7.222-24.308 102.08-30.816 140.265a5.603 5.603 0 0 0 1.653 5.004 5.603 5.603 0 0 0 5.073 1.425l105.703-23.1s-5.17-55.554-3.358-71.858c1.811-16.304-15.481-57.072-15.481-57.072l-44.871-9.738Z"/>
    <path fill="#6EE7B7" d="m317.936 391.068-26.649-15.837 27.729 45.615-1.08-29.778Z"/>
    <path fill="#93523E" d="m358.096 360.777 7.76 5.409 7.511-30.474-15.271 25.065Z"/>
    <path fill="url(#f)" d="M302.83 326.309s42.415 23.187 47.565 26.989a3.48 3.48 0 0 1 1.019 4.409l-19.481 37.403a3.475 3.475 0 0 1-4.866 1.384l-49.438-29.38s-2.63-39.108 25.201-40.805Z"/>
    <path fill="#080B09" d="M297.419 270.759c1.016-.759.901-2.632-.257-4.183-1.159-1.552-2.922-2.194-3.938-1.435-1.017.759-.901 2.632.257 4.183 1.158 1.551 2.921 2.194 3.938 1.435Zm13.938-10.547c1.016-.759.901-2.632-.257-4.183-1.159-1.552-2.922-2.194-3.938-1.435-1.017.759-.901 2.632.257 4.183 1.158 1.551 2.921 2.194 3.938 1.435Z"/>
    <path stroke="#93523E" stroke-linecap="round" stroke-linejoin="round" stroke-width="1.209" d="M305.714 263.101s-.241 4.588 2.57 3.38c2.645-1.246 4.905-.388 3.248 3.094"/>
    <path fill="#fff" d="M312.461 272.849c-1.596.869-4.789 2.605-6.896 3.796a.799.799 0 0 0-.41.715.795.795 0 0 0 .444.695c2.955 1.276 9.283 3.134 7.955-4.61a.713.713 0 0 0-1.093-.596Z"/>
    <path fill="#080B09" d="m285.432 266.173.296.242a2.118 2.118 0 0 0 2.985-.031l6.57-7.023a1.856 1.856 0 0 0 .125-2.512 2.015 2.015 0 0 0-2.292-.685 2.025 2.025 0 0 0-.72.447l-6.866 6.781a1.945 1.945 0 0 0-.639 1.37 1.923 1.923 0 0 0 .541 1.411Zm23.877-19.929-9.035 3.39a2.031 2.031 0 0 0-1.161 1.182 2.014 2.014 0 0 0 .115 1.653 1.858 1.858 0 0 0 2.333.939l9.13-3.02a2.116 2.116 0 0 0 1.28-2.697l-.096-.37a1.927 1.927 0 0 0-1.054-1.083 1.93 1.93 0 0 0-1.512.006Z"/>
  </g>
  <defs>
    <linearGradient id="b" x1="522" x2="600.214" y1="41.812" y2="1108.87" gradientUnits="userSpaceOnUse">
      <stop stop-color="#fff"/>
      <stop offset="1" stop-color="#10B981"/>
    </linearGradient>
    <linearGradient id="c" x1="701.121" x2="805.455" y1="456.837" y2="1001.03" gradientUnits="userSpaceOnUse">
      <stop stop-color="#fff"/>
      <stop offset="1" stop-color="#10B981"/>
    </linearGradient>
    <linearGradient id="d" x1="279.277" x2="280.686" y1="309.772" y2="345.107" gradientUnits="userSpaceOnUse">
      <stop stop-color="#fff"/>
      <stop offset="1" stop-color="#10B981"/>
    </linearGradient>
    <linearGradient id="e" x1="262.613" x2="315.506" y1="316.186" y2="655.226" gradientUnits="userSpaceOnUse">
      <stop stop-color="#fff"/>
      <stop offset="1" stop-color="#10B981"/>
    </linearGradient>
    <linearGradient id="f" x1="312.837" x2="328.319" y1="326.141" y2="476.148" gradientUnits="userSpaceOnUse">
      <stop stop-color="#fff"/>
      <stop offset="1" stop-color="#10B981"/>
    </linearGradient>
  </defs>
</svg>
